{"title":"The Smurfs and the Magic Flute (1976) BRRIP 1080P","uid":10078491,"size":2193998736,"categoryP":"video","categoryS":"hd___movies","magnet":"?xt=urn:btih:0a36a505ca9386e7c58752fd52037f48c1f30889&amp;dn=The+Smurfs+and+the+Magic+Flute+%281976%29+BRRIP+1080P&amp;tr=udp%3A%2F%2Ftracker.openbittorrent.com%3A80&amp;tr=udp%3A%2F%2Fopen.demonii.com%3A1337&amp;tr=udp%3A%2F%2Ftracker.coppersurfer.tk%3A6969&amp;tr=udp%3A%2F%2Fexodus.desync.com%3A6969","seeders":0,"leechers":2,"uploader":"jmanwf","files":-1,"time":1398953506,"description":"The Smurfs and the Magic Flute (1976) \n\n\n\nStoryline\n\nA villain named McCreep steals the Smurfs' magic flute, an instrument that makes people dance wildly, and uses it to rob them. The Smurf King sends out Peewit to track down the thief and retrieve the flute. Now Johan and Pirlouit must get it back at all costs, so they head to the magical kingdom of Smurfs to ask for their help. \n\n\n\nFormat                                   : MPEG-4\nFormat profile                           : Base Media\nCodec ID                                 : isom\nFile size                                : 2.04 GiB\nDuration                                 : 1h 10mn\nOverall bit rate                         : 4 135 Kbps\nWriting application                      : Lavf54.63.104\n\nVideo\nID                                       : 1\nFormat                                   : AVC\nFormat/Info                              : Advanced Video Codec\nFormat profile                           : &lt;a class=&quot;__cf_email__&quot; href=&quot;/cdn-cgi/l/email-protection&quot; data-cfemail=&quot;e1a9888689a1add5cfd1&quot;&gt;[email&amp;#160;protected]&lt;/a&gt;&lt;script cf-hash='f9e31' type=&quot;text/javascript&quot;&gt;\n/* &lt;![CDATA[ */!function(){try{var t=&quot;currentScript&quot;in document?document.currentScript:function(){for(var t=document.getElementsByTagName(&quot;script&quot;),e=t.length;e--;)if(t[e].getAttribute(&quot;cf-hash&quot;))return t[e]}();if(t&amp;&amp;t.previousSibling){var e,r,n,i,c=t.previousSibling,a=c.getAttribute(&quot;data-cfemail&quot;);if(a){for(e=&quot;&quot;,r=parseInt(a.substr(0,2),16),n=2;a.length-n;n+=2)i=parseInt(a.substr(n,2),16)^r,e+=String.fromCharCode(i);e=document.createTextNode(e),c.parentNode.replaceChild(e,c)}}}catch(u){}}();/* ]]&gt; */&lt;/script&gt;\nFormat settings, CABAC                   : Yes\nFormat settings, ReFrames                : 4 frames\nCodec ID                                 : avc1\nCodec ID/Info                            : Advanced Video Coding\nDuration                                 : 1h 10mn\nBit rate                                 : 4 032 Kbps\nWidth                                    : 1 920 pixels\nHeight                                   : 1 080 pixels\nDisplay aspect ratio                     : 16:9\nFrame rate mode                          : Constant\nFrame rate                               : 25.000 fps\nColor space                              : YUV\nChroma subsampling                       : 4:2:0\nBit depth                                : 8 bits\nScan type                                : Progressive\nBits/(Pixel*Frame)                       : 0.078\nStream size                              : 1.98 GiB (97%)\nWriting library                          : x264 core 123\n\nAudio\nID                                       : 2\nFormat                                   : AAC\nFormat/Info                              : Advanced Audio Codec\nFormat profile                           : LC\nCodec ID                                 : 40\nDuration                                 : 1h 10mn\nBit rate mode                            : Constant\nBit rate                                 : 128 Kbps\nChannel(s)                               : 2 channels\nChannel positions                        : Front: L R\nSampling rate                            : 48.0 KHz\nCompression mode                         : Lossy\nStream size                              : 64.8 MiB (3%)\n\n","torrent":{"xt":"urn:btih:0a36a505ca9386e7c58752fd52037f48c1f30889","amp;dn":"The+Smurfs+and+the+Magic+Flute+%281976%29+BRRIP+1080P","amp;tr":["udp%3A%2F%2Ftracker.openbittorrent.com%3A80","udp%3A%2F%2Fopen.demonii.com%3A1337","udp%3A%2F%2Ftracker.coppersurfer.tk%3A6969","udp%3A%2F%2Fexodus.desync.com%3A6969"],"infoHash":"0a36a505ca9386e7c58752fd52037f48c1f30889","infoHashBuffer":{"type":"Buffer","data":[10,54,165,5,202,147,134,231,197,135,82,253,82,3,127,72,193,243,8,137]},"announce":[],"urlList":[]}}